<mxfile host="app.diagrams.net" agent="Mozilla/5.0 (X11; Linux x86_64) AppleWebKit/537.36 (KHTML, like Gecko) Chrome/130.0.0.0 Safari/537.36" version="24.8.6">
  <diagram name="Page-1" id="FUyRpt19oXOtmJlVeC61">
    <mxGraphModel dx="3749" dy="1074" grid="1" gridSize="10" guides="1" tooltips="1" connect="1" arrows="1" fold="1" page="1" pageScale="1" pageWidth="850" pageHeight="1100" math="0" shadow="0">
      <root>
        <mxCell id="0" />
        <mxCell id="1" parent="0" />
        <mxCell id="2KL5Yd7e3QJ7qZri2CN5-1" value="stu id" style="ellipse;whiteSpace=wrap;html=1;align=center;fontStyle=4;" parent="1" vertex="1">
          <mxGeometry x="-420" y="150" width="100" height="40" as="geometry" />
        </mxCell>
        <mxCell id="2KL5Yd7e3QJ7qZri2CN5-2" value="f_name" style="ellipse;whiteSpace=wrap;html=1;align=center;" parent="1" vertex="1">
          <mxGeometry x="-630" y="90" width="100" height="40" as="geometry" />
        </mxCell>
        <mxCell id="2KL5Yd7e3QJ7qZri2CN5-3" value="members_of" style="shape=rhombus;perimeter=rhombusPerimeter;whiteSpace=wrap;html=1;align=center;" parent="1" vertex="1">
          <mxGeometry x="-130" y="480" width="120" height="60" as="geometry" />
        </mxCell>
        <mxCell id="2KL5Yd7e3QJ7qZri2CN5-11" style="rounded=0;orthogonalLoop=1;jettySize=auto;html=1;exitX=0;exitY=0.5;exitDx=0;exitDy=0;entryX=1;entryY=1;entryDx=0;entryDy=0;" parent="1" source="2KL5Yd7e3QJ7qZri2CN5-6" target="2KL5Yd7e3QJ7qZri2CN5-10" edge="1">
          <mxGeometry relative="1" as="geometry" />
        </mxCell>
        <mxCell id="2KL5Yd7e3QJ7qZri2CN5-14" style="rounded=0;orthogonalLoop=1;jettySize=auto;html=1;exitX=0;exitY=0.5;exitDx=0;exitDy=0;entryX=0.5;entryY=1;entryDx=0;entryDy=0;" parent="1" source="2KL5Yd7e3QJ7qZri2CN5-6" target="2KL5Yd7e3QJ7qZri2CN5-1" edge="1">
          <mxGeometry relative="1" as="geometry" />
        </mxCell>
        <mxCell id="2KL5Yd7e3QJ7qZri2CN5-16" style="rounded=0;orthogonalLoop=1;jettySize=auto;html=1;exitX=0;exitY=0.5;exitDx=0;exitDy=0;entryX=1;entryY=0.5;entryDx=0;entryDy=0;" parent="1" source="2KL5Yd7e3QJ7qZri2CN5-6" target="2KL5Yd7e3QJ7qZri2CN5-9" edge="1">
          <mxGeometry relative="1" as="geometry" />
        </mxCell>
        <mxCell id="2KL5Yd7e3QJ7qZri2CN5-20" style="rounded=0;orthogonalLoop=1;jettySize=auto;html=1;exitX=0;exitY=0.5;exitDx=0;exitDy=0;entryX=1;entryY=0.5;entryDx=0;entryDy=0;" parent="1" source="2KL5Yd7e3QJ7qZri2CN5-6" target="2KL5Yd7e3QJ7qZri2CN5-17" edge="1">
          <mxGeometry relative="1" as="geometry">
            <mxPoint x="-320" y="380" as="sourcePoint" />
          </mxGeometry>
        </mxCell>
        <mxCell id="2KL5Yd7e3QJ7qZri2CN5-21" style="rounded=0;orthogonalLoop=1;jettySize=auto;html=1;exitX=0;exitY=0.5;exitDx=0;exitDy=0;entryX=1;entryY=0;entryDx=0;entryDy=0;" parent="1" source="2KL5Yd7e3QJ7qZri2CN5-6" target="2KL5Yd7e3QJ7qZri2CN5-18" edge="1">
          <mxGeometry relative="1" as="geometry" />
        </mxCell>
        <mxCell id="2KL5Yd7e3QJ7qZri2CN5-22" style="rounded=0;orthogonalLoop=1;jettySize=auto;html=1;exitX=0;exitY=0.5;exitDx=0;exitDy=0;entryX=1;entryY=0;entryDx=0;entryDy=0;" parent="1" source="2KL5Yd7e3QJ7qZri2CN5-6" target="2KL5Yd7e3QJ7qZri2CN5-19" edge="1">
          <mxGeometry relative="1" as="geometry">
            <mxPoint x="-620" y="540" as="targetPoint" />
          </mxGeometry>
        </mxCell>
        <mxCell id="9Y6JlHBwCMwmrNG0bI4D-5" style="rounded=0;orthogonalLoop=1;jettySize=auto;html=1;exitX=0;exitY=0.5;exitDx=0;exitDy=0;entryX=1;entryY=0.5;entryDx=0;entryDy=0;" parent="1" source="2KL5Yd7e3QJ7qZri2CN5-6" target="9Y6JlHBwCMwmrNG0bI4D-4" edge="1">
          <mxGeometry relative="1" as="geometry" />
        </mxCell>
        <mxCell id="9Y6JlHBwCMwmrNG0bI4D-9" style="rounded=0;orthogonalLoop=1;jettySize=auto;html=1;exitX=0;exitY=0.5;exitDx=0;exitDy=0;" parent="1" source="2KL5Yd7e3QJ7qZri2CN5-6" target="9Y6JlHBwCMwmrNG0bI4D-8" edge="1">
          <mxGeometry relative="1" as="geometry" />
        </mxCell>
        <mxCell id="9Y6JlHBwCMwmrNG0bI4D-13" style="rounded=0;orthogonalLoop=1;jettySize=auto;html=1;exitX=0;exitY=0.5;exitDx=0;exitDy=0;entryX=0.5;entryY=0;entryDx=0;entryDy=0;" parent="1" source="2KL5Yd7e3QJ7qZri2CN5-6" target="9Y6JlHBwCMwmrNG0bI4D-11" edge="1">
          <mxGeometry relative="1" as="geometry" />
        </mxCell>
        <mxCell id="9Y6JlHBwCMwmrNG0bI4D-14" style="rounded=0;orthogonalLoop=1;jettySize=auto;html=1;exitX=0;exitY=0.5;exitDx=0;exitDy=0;" parent="1" source="2KL5Yd7e3QJ7qZri2CN5-6" target="9Y6JlHBwCMwmrNG0bI4D-12" edge="1">
          <mxGeometry relative="1" as="geometry" />
        </mxCell>
        <mxCell id="RbWCfdoK0NttepPL5Ol_-14" style="rounded=0;orthogonalLoop=1;jettySize=auto;html=1;exitX=0;exitY=0.5;exitDx=0;exitDy=0;entryX=1;entryY=0;entryDx=0;entryDy=0;" edge="1" parent="1" source="2KL5Yd7e3QJ7qZri2CN5-6" target="9Y6JlHBwCMwmrNG0bI4D-41">
          <mxGeometry relative="1" as="geometry" />
        </mxCell>
        <mxCell id="2KL5Yd7e3QJ7qZri2CN5-6" value="stu_reg" style="whiteSpace=wrap;html=1;align=center;" parent="1" vertex="1">
          <mxGeometry x="-320" y="350" width="100" height="40" as="geometry" />
        </mxCell>
        <mxCell id="2KL5Yd7e3QJ7qZri2CN5-8" value="l_name" style="ellipse;whiteSpace=wrap;html=1;align=center;" parent="1" vertex="1">
          <mxGeometry x="-710" y="130" width="100" height="40" as="geometry" />
        </mxCell>
        <mxCell id="2KL5Yd7e3QJ7qZri2CN5-9" value="age" style="ellipse;whiteSpace=wrap;html=1;align=center;dashed=1;" parent="1" vertex="1">
          <mxGeometry x="-660" y="280" width="100" height="40" as="geometry" />
        </mxCell>
        <mxCell id="2KL5Yd7e3QJ7qZri2CN5-12" style="rounded=0;orthogonalLoop=1;jettySize=auto;html=1;exitX=0;exitY=0;exitDx=0;exitDy=0;" parent="1" source="2KL5Yd7e3QJ7qZri2CN5-10" target="2KL5Yd7e3QJ7qZri2CN5-8" edge="1">
          <mxGeometry relative="1" as="geometry" />
        </mxCell>
        <mxCell id="2KL5Yd7e3QJ7qZri2CN5-13" style="rounded=0;orthogonalLoop=1;jettySize=auto;html=1;exitX=0;exitY=0;exitDx=0;exitDy=0;entryX=1;entryY=1;entryDx=0;entryDy=0;" parent="1" source="2KL5Yd7e3QJ7qZri2CN5-10" target="2KL5Yd7e3QJ7qZri2CN5-2" edge="1">
          <mxGeometry relative="1" as="geometry" />
        </mxCell>
        <mxCell id="2KL5Yd7e3QJ7qZri2CN5-10" value="Name" style="ellipse;whiteSpace=wrap;html=1;align=center;" parent="1" vertex="1">
          <mxGeometry x="-525" y="190" width="100" height="40" as="geometry" />
        </mxCell>
        <mxCell id="2KL5Yd7e3QJ7qZri2CN5-26" style="rounded=0;orthogonalLoop=1;jettySize=auto;html=1;exitX=0;exitY=0.5;exitDx=0;exitDy=0;entryX=1;entryY=0.5;entryDx=0;entryDy=0;" parent="1" source="2KL5Yd7e3QJ7qZri2CN5-17" target="2KL5Yd7e3QJ7qZri2CN5-25" edge="1">
          <mxGeometry relative="1" as="geometry" />
        </mxCell>
        <mxCell id="2KL5Yd7e3QJ7qZri2CN5-27" style="rounded=0;orthogonalLoop=1;jettySize=auto;html=1;exitX=0;exitY=0.5;exitDx=0;exitDy=0;entryX=1;entryY=1;entryDx=0;entryDy=0;" parent="1" source="2KL5Yd7e3QJ7qZri2CN5-17" target="2KL5Yd7e3QJ7qZri2CN5-24" edge="1">
          <mxGeometry relative="1" as="geometry" />
        </mxCell>
        <mxCell id="2KL5Yd7e3QJ7qZri2CN5-17" value="Address" style="ellipse;whiteSpace=wrap;html=1;align=center;" parent="1" vertex="1">
          <mxGeometry x="-710" y="410" width="100" height="40" as="geometry" />
        </mxCell>
        <mxCell id="2KL5Yd7e3QJ7qZri2CN5-18" value="email" style="ellipse;shape=doubleEllipse;margin=3;whiteSpace=wrap;html=1;align=center;" parent="1" vertex="1">
          <mxGeometry x="-700" y="490" width="100" height="40" as="geometry" />
        </mxCell>
        <mxCell id="2KL5Yd7e3QJ7qZri2CN5-19" value="phn_num" style="ellipse;shape=doubleEllipse;margin=3;whiteSpace=wrap;html=1;align=center;" parent="1" vertex="1">
          <mxGeometry x="-670" y="540" width="100" height="40" as="geometry" />
        </mxCell>
        <mxCell id="2KL5Yd7e3QJ7qZri2CN5-24" value="permanent_addr" style="ellipse;whiteSpace=wrap;html=1;align=center;" parent="1" vertex="1">
          <mxGeometry x="-870" y="350" width="100" height="40" as="geometry" />
        </mxCell>
        <mxCell id="2KL5Yd7e3QJ7qZri2CN5-25" value="pre_addr" style="ellipse;whiteSpace=wrap;html=1;align=center;" parent="1" vertex="1">
          <mxGeometry x="-880" y="410" width="100" height="40" as="geometry" />
        </mxCell>
        <mxCell id="9Y6JlHBwCMwmrNG0bI4D-31" style="rounded=0;orthogonalLoop=1;jettySize=auto;html=1;exitX=1;exitY=1;exitDx=0;exitDy=0;" parent="1" source="2KL5Yd7e3QJ7qZri2CN5-33" target="2KL5Yd7e3QJ7qZri2CN5-34" edge="1">
          <mxGeometry relative="1" as="geometry" />
        </mxCell>
        <mxCell id="9Y6JlHBwCMwmrNG0bI4D-32" style="rounded=0;orthogonalLoop=1;jettySize=auto;html=1;exitX=1;exitY=1;exitDx=0;exitDy=0;" parent="1" source="2KL5Yd7e3QJ7qZri2CN5-33" target="9Y6JlHBwCMwmrNG0bI4D-17" edge="1">
          <mxGeometry relative="1" as="geometry" />
        </mxCell>
        <mxCell id="9Y6JlHBwCMwmrNG0bI4D-33" style="rounded=0;orthogonalLoop=1;jettySize=auto;html=1;exitX=1;exitY=1;exitDx=0;exitDy=0;entryX=0;entryY=0;entryDx=0;entryDy=0;" parent="1" source="2KL5Yd7e3QJ7qZri2CN5-33" target="9Y6JlHBwCMwmrNG0bI4D-18" edge="1">
          <mxGeometry relative="1" as="geometry" />
        </mxCell>
        <mxCell id="9Y6JlHBwCMwmrNG0bI4D-34" style="rounded=0;orthogonalLoop=1;jettySize=auto;html=1;exitX=1;exitY=1;exitDx=0;exitDy=0;entryX=0;entryY=1;entryDx=0;entryDy=0;" parent="1" source="2KL5Yd7e3QJ7qZri2CN5-33" target="9Y6JlHBwCMwmrNG0bI4D-19" edge="1">
          <mxGeometry relative="1" as="geometry" />
        </mxCell>
        <mxCell id="2KL5Yd7e3QJ7qZri2CN5-33" value="lm_reg" style="whiteSpace=wrap;html=1;align=center;" parent="1" vertex="1">
          <mxGeometry x="220" y="720" width="100" height="40" as="geometry" />
        </mxCell>
        <mxCell id="2KL5Yd7e3QJ7qZri2CN5-34" value="lib id" style="ellipse;whiteSpace=wrap;html=1;align=center;fontStyle=4;" parent="1" vertex="1">
          <mxGeometry x="240" y="860" width="100" height="40" as="geometry" />
        </mxCell>
        <mxCell id="2KL5Yd7e3QJ7qZri2CN5-44" style="rounded=0;orthogonalLoop=1;jettySize=auto;html=1;exitX=0.5;exitY=1;exitDx=0;exitDy=0;" parent="1" source="2KL5Yd7e3QJ7qZri2CN5-38" target="2KL5Yd7e3QJ7qZri2CN5-42" edge="1">
          <mxGeometry relative="1" as="geometry" />
        </mxCell>
        <mxCell id="2KL5Yd7e3QJ7qZri2CN5-47" style="rounded=0;orthogonalLoop=1;jettySize=auto;html=1;exitX=0.5;exitY=1;exitDx=0;exitDy=0;entryX=0.5;entryY=0;entryDx=0;entryDy=0;" parent="1" source="2KL5Yd7e3QJ7qZri2CN5-38" target="2KL5Yd7e3QJ7qZri2CN5-40" edge="1">
          <mxGeometry relative="1" as="geometry" />
        </mxCell>
        <mxCell id="RbWCfdoK0NttepPL5Ol_-6" style="rounded=0;orthogonalLoop=1;jettySize=auto;html=1;exitX=0.5;exitY=1;exitDx=0;exitDy=0;entryX=1;entryY=0;entryDx=0;entryDy=0;" edge="1" parent="1" source="2KL5Yd7e3QJ7qZri2CN5-38" target="RbWCfdoK0NttepPL5Ol_-5">
          <mxGeometry relative="1" as="geometry" />
        </mxCell>
        <mxCell id="2KL5Yd7e3QJ7qZri2CN5-38" value="dept_names" style="whiteSpace=wrap;html=1;align=center;" parent="1" vertex="1">
          <mxGeometry x="-115" y="750" width="100" height="40" as="geometry" />
        </mxCell>
        <mxCell id="2KL5Yd7e3QJ7qZri2CN5-40" value="dept_name" style="ellipse;whiteSpace=wrap;html=1;align=center;" parent="1" vertex="1">
          <mxGeometry x="-119" y="890" width="100" height="40" as="geometry" />
        </mxCell>
        <mxCell id="2KL5Yd7e3QJ7qZri2CN5-42" value="dept_id" style="ellipse;whiteSpace=wrap;html=1;align=center;fontStyle=4;" parent="1" vertex="1">
          <mxGeometry x="-10" y="880" width="100" height="40" as="geometry" />
        </mxCell>
        <mxCell id="9Y6JlHBwCMwmrNG0bI4D-1" value="dob" style="ellipse;whiteSpace=wrap;html=1;align=center;" parent="1" vertex="1">
          <mxGeometry x="-600" y="230" width="100" height="40" as="geometry" />
        </mxCell>
        <mxCell id="9Y6JlHBwCMwmrNG0bI4D-4" value="dept_name" style="ellipse;whiteSpace=wrap;html=1;align=center;" parent="1" vertex="1">
          <mxGeometry x="-700" y="340" width="100" height="40" as="geometry" />
        </mxCell>
        <mxCell id="9Y6JlHBwCMwmrNG0bI4D-8" value="dept_id" style="ellipse;whiteSpace=wrap;html=1;align=center;fontStyle=4;" parent="1" vertex="1">
          <mxGeometry x="-600" y="670" width="100" height="40" as="geometry" />
        </mxCell>
        <mxCell id="9Y6JlHBwCMwmrNG0bI4D-10" value="" style="edgeStyle=entityRelationEdgeStyle;fontSize=12;html=1;endArrow=ERmany;startArrow=ERmany;rounded=0;entryX=0;entryY=0.5;entryDx=0;entryDy=0;" parent="1" target="2KL5Yd7e3QJ7qZri2CN5-3" edge="1">
          <mxGeometry width="100" height="100" relative="1" as="geometry">
            <mxPoint x="-220" y="370" as="sourcePoint" />
            <mxPoint x="-70" y="340" as="targetPoint" />
          </mxGeometry>
        </mxCell>
        <mxCell id="9Y6JlHBwCMwmrNG0bI4D-11" value="cclub_id" style="ellipse;whiteSpace=wrap;html=1;align=center;fontStyle=4;" parent="1" vertex="1">
          <mxGeometry x="-490" y="690" width="100" height="40" as="geometry" />
        </mxCell>
        <mxCell id="9Y6JlHBwCMwmrNG0bI4D-12" value="lib_id" style="ellipse;whiteSpace=wrap;html=1;align=center;fontStyle=4;" parent="1" vertex="1">
          <mxGeometry x="-370" y="690" width="100" height="40" as="geometry" />
        </mxCell>
        <mxCell id="9Y6JlHBwCMwmrNG0bI4D-17" value="mem_name" style="ellipse;whiteSpace=wrap;html=1;align=center;" parent="1" vertex="1">
          <mxGeometry x="350" y="820" width="100" height="40" as="geometry" />
        </mxCell>
        <mxCell id="9Y6JlHBwCMwmrNG0bI4D-18" value="contact_num" style="ellipse;whiteSpace=wrap;html=1;align=center;" parent="1" vertex="1">
          <mxGeometry x="390" y="750" width="100" height="40" as="geometry" />
        </mxCell>
        <mxCell id="9Y6JlHBwCMwmrNG0bI4D-19" value="stu_id" style="ellipse;whiteSpace=wrap;html=1;align=center;fontStyle=4;" parent="1" vertex="1">
          <mxGeometry x="400" y="670" width="100" height="40" as="geometry" />
        </mxCell>
        <mxCell id="9Y6JlHBwCMwmrNG0bI4D-22" value="" style="fontSize=12;html=1;endArrow=ERmany;rounded=0;entryX=1;entryY=0.5;entryDx=0;entryDy=0;exitX=0.5;exitY=0;exitDx=0;exitDy=0;" parent="1" source="2KL5Yd7e3QJ7qZri2CN5-33" target="2KL5Yd7e3QJ7qZri2CN5-3" edge="1">
          <mxGeometry width="100" height="100" relative="1" as="geometry">
            <mxPoint x="150" y="690" as="sourcePoint" />
            <mxPoint x="250" y="590" as="targetPoint" />
          </mxGeometry>
        </mxCell>
        <mxCell id="9Y6JlHBwCMwmrNG0bI4D-23" value="" style="fontSize=12;html=1;endArrow=ERmany;rounded=0;entryX=0.5;entryY=1;entryDx=0;entryDy=0;exitX=0.5;exitY=0;exitDx=0;exitDy=0;" parent="1" source="2KL5Yd7e3QJ7qZri2CN5-38" target="2KL5Yd7e3QJ7qZri2CN5-3" edge="1">
          <mxGeometry width="100" height="100" relative="1" as="geometry">
            <mxPoint x="125" y="770" as="sourcePoint" />
            <mxPoint x="-155" y="560" as="targetPoint" />
          </mxGeometry>
        </mxCell>
        <mxCell id="9Y6JlHBwCMwmrNG0bI4D-25" value="M" style="text;html=1;align=center;verticalAlign=middle;whiteSpace=wrap;rounded=0;" parent="1" vertex="1">
          <mxGeometry x="-235" y="345" width="60" height="30" as="geometry" />
        </mxCell>
        <mxCell id="9Y6JlHBwCMwmrNG0bI4D-26" value="M" style="text;html=1;align=center;verticalAlign=middle;whiteSpace=wrap;rounded=0;" parent="1" vertex="1">
          <mxGeometry x="-175" y="481" width="60" height="30" as="geometry" />
        </mxCell>
        <mxCell id="9Y6JlHBwCMwmrNG0bI4D-27" value="M" style="text;html=1;align=center;verticalAlign=middle;whiteSpace=wrap;rounded=0;" parent="1" vertex="1">
          <mxGeometry x="-88" y="535" width="60" height="30" as="geometry" />
        </mxCell>
        <mxCell id="9Y6JlHBwCMwmrNG0bI4D-28" value="1" style="text;html=1;align=center;verticalAlign=middle;whiteSpace=wrap;rounded=0;" parent="1" vertex="1">
          <mxGeometry x="-80" y="720" width="60" height="30" as="geometry" />
        </mxCell>
        <mxCell id="9Y6JlHBwCMwmrNG0bI4D-29" value="M" style="text;html=1;align=center;verticalAlign=middle;whiteSpace=wrap;rounded=0;" parent="1" vertex="1">
          <mxGeometry x="-30" y="516" width="60" height="30" as="geometry" />
        </mxCell>
        <mxCell id="9Y6JlHBwCMwmrNG0bI4D-30" value="1" style="text;html=1;align=center;verticalAlign=middle;whiteSpace=wrap;rounded=0;" parent="1" vertex="1">
          <mxGeometry x="190" y="680" width="60" height="30" as="geometry" />
        </mxCell>
        <mxCell id="RbWCfdoK0NttepPL5Ol_-7" style="rounded=0;orthogonalLoop=1;jettySize=auto;html=1;exitX=1;exitY=0.5;exitDx=0;exitDy=0;entryX=0.5;entryY=1;entryDx=0;entryDy=0;" edge="1" parent="1" source="9Y6JlHBwCMwmrNG0bI4D-35" target="9Y6JlHBwCMwmrNG0bI4D-40">
          <mxGeometry relative="1" as="geometry" />
        </mxCell>
        <mxCell id="RbWCfdoK0NttepPL5Ol_-8" style="rounded=0;orthogonalLoop=1;jettySize=auto;html=1;exitX=1;exitY=0.5;exitDx=0;exitDy=0;entryX=0;entryY=1;entryDx=0;entryDy=0;" edge="1" parent="1" source="9Y6JlHBwCMwmrNG0bI4D-35" target="9Y6JlHBwCMwmrNG0bI4D-38">
          <mxGeometry relative="1" as="geometry" />
        </mxCell>
        <mxCell id="RbWCfdoK0NttepPL5Ol_-9" style="rounded=0;orthogonalLoop=1;jettySize=auto;html=1;exitX=1;exitY=0.5;exitDx=0;exitDy=0;entryX=0;entryY=0.5;entryDx=0;entryDy=0;" edge="1" parent="1" source="9Y6JlHBwCMwmrNG0bI4D-35" target="9Y6JlHBwCMwmrNG0bI4D-37">
          <mxGeometry relative="1" as="geometry" />
        </mxCell>
        <mxCell id="RbWCfdoK0NttepPL5Ol_-10" style="rounded=0;orthogonalLoop=1;jettySize=auto;html=1;exitX=1;exitY=0.5;exitDx=0;exitDy=0;entryX=0;entryY=0;entryDx=0;entryDy=0;" edge="1" parent="1" source="9Y6JlHBwCMwmrNG0bI4D-35" target="9Y6JlHBwCMwmrNG0bI4D-36">
          <mxGeometry relative="1" as="geometry" />
        </mxCell>
        <mxCell id="RbWCfdoK0NttepPL5Ol_-11" style="rounded=0;orthogonalLoop=1;jettySize=auto;html=1;exitX=1;exitY=0.5;exitDx=0;exitDy=0;entryX=0;entryY=0;entryDx=0;entryDy=0;" edge="1" parent="1" source="9Y6JlHBwCMwmrNG0bI4D-35" target="RbWCfdoK0NttepPL5Ol_-4">
          <mxGeometry relative="1" as="geometry" />
        </mxCell>
        <mxCell id="9Y6JlHBwCMwmrNG0bI4D-35" value="cclub_reg" style="whiteSpace=wrap;html=1;align=center;" parent="1" vertex="1">
          <mxGeometry x="340" y="495" width="100" height="40" as="geometry" />
        </mxCell>
        <mxCell id="9Y6JlHBwCMwmrNG0bI4D-36" value="phn_num" style="ellipse;whiteSpace=wrap;html=1;align=center;" parent="1" vertex="1">
          <mxGeometry x="590" y="560" width="100" height="40" as="geometry" />
        </mxCell>
        <mxCell id="9Y6JlHBwCMwmrNG0bI4D-37" value="contact_num" style="ellipse;whiteSpace=wrap;html=1;align=center;" parent="1" vertex="1">
          <mxGeometry x="600" y="495" width="100" height="40" as="geometry" />
        </mxCell>
        <mxCell id="9Y6JlHBwCMwmrNG0bI4D-38" value="ccmem_name" style="ellipse;whiteSpace=wrap;html=1;align=center;" parent="1" vertex="1">
          <mxGeometry x="575" y="430" width="100" height="40" as="geometry" />
        </mxCell>
        <mxCell id="9Y6JlHBwCMwmrNG0bI4D-40" value="cclub_id" style="ellipse;whiteSpace=wrap;html=1;align=center;fontStyle=4;" parent="1" vertex="1">
          <mxGeometry x="520" y="370" width="100" height="40" as="geometry" />
        </mxCell>
        <mxCell id="9Y6JlHBwCMwmrNG0bI4D-41" value="passwd" style="ellipse;whiteSpace=wrap;html=1;align=center;" parent="1" vertex="1">
          <mxGeometry x="-650" y="600" width="100" height="40" as="geometry" />
        </mxCell>
        <mxCell id="RbWCfdoK0NttepPL5Ol_-1" value="" style="edgeStyle=entityRelationEdgeStyle;fontSize=12;html=1;endArrow=ERoneToMany;rounded=0;entryX=1;entryY=0.5;entryDx=0;entryDy=0;exitX=0;exitY=0.5;exitDx=0;exitDy=0;" edge="1" parent="1" source="9Y6JlHBwCMwmrNG0bI4D-35" target="2KL5Yd7e3QJ7qZri2CN5-3">
          <mxGeometry width="100" height="100" relative="1" as="geometry">
            <mxPoint x="-10" y="680" as="sourcePoint" />
            <mxPoint x="90" y="580" as="targetPoint" />
          </mxGeometry>
        </mxCell>
        <mxCell id="RbWCfdoK0NttepPL5Ol_-2" value="M" style="text;html=1;align=center;verticalAlign=middle;whiteSpace=wrap;rounded=0;" vertex="1" parent="1">
          <mxGeometry x="-19" y="485" width="60" height="30" as="geometry" />
        </mxCell>
        <mxCell id="RbWCfdoK0NttepPL5Ol_-3" value="1" style="text;html=1;align=center;verticalAlign=middle;whiteSpace=wrap;rounded=0;" vertex="1" parent="1">
          <mxGeometry x="290" y="485" width="60" height="30" as="geometry" />
        </mxCell>
        <mxCell id="RbWCfdoK0NttepPL5Ol_-4" value="stu_id" style="ellipse;whiteSpace=wrap;html=1;align=center;fontStyle=4;" vertex="1" parent="1">
          <mxGeometry x="520" y="610" width="100" height="40" as="geometry" />
        </mxCell>
        <mxCell id="RbWCfdoK0NttepPL5Ol_-5" value="stu_id" style="ellipse;whiteSpace=wrap;html=1;align=center;fontStyle=4;" vertex="1" parent="1">
          <mxGeometry x="-230" y="880" width="100" height="40" as="geometry" />
        </mxCell>
      </root>
    </mxGraphModel>
  </diagram>
</mxfile>
